<svg xmlns="http://www.w3.org/2000/svg" width="18" height="15" viewBox="0 0 18 15"><g><g><path fill="#436372" d="M3 15a.446.446 0 0 1-.164-.031.411.411 0 0 1-.265-.38v-2.071H1.286c-.71 0-1.286-.553-1.286-1.233V1.424C0 .744.577.19 1.286.19h15.428C17.423.191 18 .744 18 1.424v9.861c0 .68-.577 1.233-1.286 1.233H5.766L3.303 14.88A.438.438 0 0 1 3 15zM1.286 1.013a.42.42 0 0 0-.429.41v9.862c0 .227.192.411.429.411H3a.42.42 0 0 1 .428.411v1.49l1.857-1.78c.08-.077.19-.12.303-.12h11.126a.42.42 0 0 0 .429-.412V1.424a.42.42 0 0 0-.429-.411zm4.771 5.342a.63.63 0 0 1-.643.616.63.63 0 0 1-.642-.616.63.63 0 0 1 .642-.617.63.63 0 0 1 .643.617zm3.586 0A.63.63 0 0 1 9 6.97a.63.63 0 0 1-.643-.616A.63.63 0 0 1 9 5.738a.63.63 0 0 1 .643.617zm3.343 0a.63.63 0 0 1-.643.616.63.63 0 0 1-.643-.616.63.63 0 0 1 .643-.617.63.63 0 0 1 .643.617z"/></g></g></svg>