<svg xmlns="http://www.w3.org/2000/svg" width="18" height="13" viewBox="0 0 18 13"><g><g><path fill="#436372" d="M16.714 12.994H1.286a1.308 1.308 0 0 1-.928-.381A1.21 1.21 0 0 1 0 11.757V1.858C0 1.176.577.621 1.286.621h15.428C17.423.62 18 1.176 18 1.858v9.899a1.21 1.21 0 0 1-.397.893 1.308 1.308 0 0 1-.889.344zM.857 1.858v9.728l5.966-5.742L.858 1.826v.032zm15.68 10.311l-6.074-5.844-.726.489c-.22.149-.479.223-.737.223-.259 0-.517-.074-.737-.223l-.727-.49-6.073 5.845zm.606-10.31c0-.011 0-.022-.002-.033l-5.964 4.018 5.966 5.742zm-8.389 4.28c.147.098.345.098.492 0l6.965-4.693H1.788z"/></g></g></svg>