<svg xmlns="http://www.w3.org/2000/svg" width="14" height="14" viewBox="0 0 14 14"><g><g><path fill="#436372" d="M13.382 13.166H.55a.42.42 0 0 1-.428-.411c0-2.977 2.066-5.498 4.89-6.308-1.01-.622-1.681-1.71-1.681-2.948C3.33 1.571 4.96.003 6.966.003c2.004 0 3.636 1.568 3.636 3.496 0 1.237-.671 2.326-1.682 2.948 2.825.81 4.89 3.331 4.89 6.308a.42.42 0 0 1-.428.411zm-12.39-.823H12.94c-.22-2.984-2.815-5.347-5.973-5.347-3.159 0-5.754 2.363-5.974 5.347zM6.966.826c-1.533 0-2.78 1.199-2.78 2.673 0 1.475 1.247 2.674 2.78 2.674 1.533 0 2.78-1.2 2.78-2.674S8.499.826 6.966.826z"/></g></g></svg>